<svg width="172" height="22" viewBox="0 0 172 22" fill="none" xmlns="http://www.w3.org/2000/svg">
<path d="M13.72 17.776H6.908L5.244 21H0.59L10.418 2.748H15.566L18.946 21H14.24L13.72 17.776ZM13.2 14.396L12.134 7.636L8.65 14.396H13.2ZM29.3279 1.76L25.9219 21H21.4759L24.8819 1.76H29.3279ZM50.7759 6.336C52.3359 6.336 53.5492 6.752 54.4159 7.584C55.2999 8.39867 55.7419 9.54267 55.7419 11.016C55.7419 11.4667 55.6899 11.9693 55.5859 12.524L54.0779 21H49.6579L51.0619 13.122C51.0966 12.9487 51.1139 12.7147 51.1139 12.42C51.1139 11.692 50.9059 11.1373 50.4899 10.756C50.0912 10.3747 49.5279 10.184 48.7999 10.184C47.9332 10.184 47.2052 10.444 46.6159 10.964C46.0266 11.4667 45.6539 12.186 45.4979 13.122L44.0939 21H39.6739L41.0779 13.122C41.1126 12.9487 41.1299 12.7147 41.1299 12.42C41.1299 11.692 40.9219 11.1373 40.5059 10.756C40.1072 10.3747 39.5439 10.184 38.8159 10.184C37.9492 10.184 37.2212 10.444 36.6319 10.964C36.0426 11.4667 35.6699 12.186 35.5139 13.122V12.992L34.1099 21H29.6639L32.2119 6.492H36.6579L36.3459 8.338C36.9006 7.714 37.5679 7.22867 38.3479 6.882C39.1452 6.518 40.0032 6.336 40.9219 6.336C42.0312 6.336 42.9672 6.57 43.7299 7.038C44.5099 7.506 45.0646 8.182 45.3939 9.066C46.0352 8.25133 46.8326 7.59267 47.7859 7.09C48.7392 6.58733 49.7359 6.336 50.7759 6.336ZM58.1233 13.72C58.3833 12.2293 58.8947 10.9207 59.6573 9.794C60.42 8.66733 61.3387 7.80067 62.4133 7.194C63.488 6.58733 64.6233 6.284 65.8193 6.284C66.842 6.284 67.7 6.492 68.3933 6.908C69.0867 7.324 69.5893 7.87 69.9013 8.546L70.2653 6.492H74.7113L72.1373 21H67.6913L68.0813 18.946C67.5267 19.622 66.8247 20.168 65.9753 20.584C65.126 21 64.19 21.208 63.1673 21.208C62.1447 21.208 61.2347 20.974 60.4373 20.506C59.6573 20.038 59.0507 19.3793 58.6173 18.53C58.184 17.6633 57.9673 16.6493 57.9673 15.488C57.9673 14.9333 58.0193 14.344 58.1233 13.72ZM68.9913 13.746C69.0433 13.434 69.0693 13.148 69.0693 12.888C69.0693 12.0387 68.818 11.3713 68.3153 10.886C67.83 10.4007 67.206 10.158 66.4433 10.158C65.5593 10.158 64.7533 10.4787 64.0253 11.12C63.2973 11.744 62.838 12.6107 62.6473 13.72C62.5953 14.032 62.5693 14.318 62.5693 14.578C62.5693 15.4273 62.812 16.1033 63.2973 16.606C63.8 17.0913 64.424 17.334 65.1693 17.334C66.0533 17.334 66.8593 17.0133 67.5873 16.372C68.3153 15.7307 68.7833 14.8553 68.9913 13.746ZM81.9058 21.208C80.7618 21.208 79.7305 21.026 78.8118 20.662C77.9105 20.298 77.1998 19.7953 76.6798 19.154C76.1598 18.4953 75.8998 17.7413 75.8998 16.892C75.8998 16.7707 75.9171 16.554 75.9518 16.242H80.2418C80.2071 16.7793 80.3631 17.2127 80.7098 17.542C81.0738 17.854 81.5851 18.01 82.2438 18.01C82.7985 18.01 83.2578 17.906 83.6218 17.698C83.9858 17.49 84.1678 17.1953 84.1678 16.814C84.1678 16.45 83.9685 16.164 83.5698 15.956C83.1885 15.7307 82.5471 15.462 81.6458 15.15C80.7098 14.838 79.9211 14.5347 79.2798 14.24C78.6558 13.928 78.1185 13.486 77.6678 12.914C77.2171 12.342 76.9918 11.6227 76.9918 10.756C76.9918 9.90667 77.2431 9.144 77.7458 8.468C78.2485 7.77467 78.9505 7.23733 79.8518 6.856C80.7705 6.47467 81.8278 6.284 83.0238 6.284C84.2198 6.284 85.2598 6.48333 86.1438 6.882C87.0278 7.26333 87.7125 7.80067 88.1978 8.494C88.6831 9.18733 88.9258 9.96733 88.9258 10.834L88.8998 11.224H84.8698C84.9045 10.704 84.7485 10.288 84.4018 9.976C84.0551 9.664 83.5611 9.508 82.9198 9.508C82.4171 9.508 82.0011 9.612 81.6718 9.82C81.3598 10.028 81.2038 10.314 81.2038 10.678C81.2038 11.0593 81.4118 11.38 81.8278 11.64C82.2611 11.8827 82.9285 12.16 83.8298 12.472C84.7658 12.784 85.5371 13.096 86.1438 13.408C86.7678 13.7027 87.2965 14.1273 87.7298 14.682C88.1805 15.2193 88.4058 15.8953 88.4058 16.71C88.4058 17.646 88.1198 18.452 87.5478 19.128C86.9931 19.804 86.2218 20.324 85.2338 20.688C84.2631 21.0347 83.1538 21.208 81.9058 21.208ZM105.556 2.748L103.372 15.176C103.025 17.1 102.219 18.582 100.954 19.622C99.6885 20.662 98.1372 21.182 96.2999 21.182C94.6359 21.182 93.3185 20.766 92.3479 19.934C91.3945 19.102 90.9179 17.906 90.9179 16.346C90.9179 15.8087 90.9612 15.3233 91.0479 14.89H95.4679C95.4159 15.1673 95.3899 15.4187 95.3899 15.644C95.3899 16.164 95.5199 16.554 95.7799 16.814C96.0399 17.074 96.4039 17.204 96.8719 17.204C97.4092 17.204 97.8512 17.0393 98.1979 16.71C98.5619 16.3633 98.8045 15.852 98.9259 15.176L101.11 2.748H105.556ZM115.491 6.284C117.363 6.284 118.845 6.79533 119.937 7.818C121.046 8.82333 121.601 10.2013 121.601 11.952C121.601 12.524 121.558 13.0353 121.471 13.486C121.402 13.8847 121.298 14.3093 121.159 14.76H111.097C111.08 14.864 111.071 15.0287 111.071 15.254C111.071 16.0167 111.279 16.5973 111.695 16.996C112.111 17.3947 112.666 17.594 113.359 17.594C114.468 17.594 115.318 17.126 115.907 16.19H120.639C120.015 17.6633 119.001 18.868 117.597 19.804C116.193 20.74 114.616 21.208 112.865 21.208C110.993 21.208 109.494 20.688 108.367 19.648C107.258 18.608 106.703 17.1953 106.703 15.41C106.703 14.8727 106.755 14.318 106.859 13.746C107.119 12.238 107.656 10.9207 108.471 9.794C109.286 8.66733 110.3 7.80067 111.513 7.194C112.726 6.58733 114.052 6.284 115.491 6.284ZM117.103 12.498C117.138 12.2553 117.155 12.0907 117.155 12.004C117.155 11.3107 116.938 10.782 116.505 10.418C116.072 10.0367 115.5 9.846 114.789 9.846C114.026 9.846 113.35 10.08 112.761 10.548C112.189 10.9987 111.773 11.6487 111.513 12.498H117.103ZM129.017 16.008C128.999 16.0947 128.991 16.2073 128.991 16.346C128.991 16.658 129.077 16.8833 129.251 17.022C129.441 17.1607 129.745 17.23 130.161 17.23H131.747L131.071 21H128.809C125.897 21 124.441 19.778 124.441 17.334C124.441 16.97 124.484 16.5107 124.571 15.956L125.611 10.184H123.843L124.493 6.492H126.261L126.885 2.956H131.331L130.707 6.492H133.619L132.969 10.184H130.057L129.017 16.008ZM144.389 11.692L150.083 21H144.649L139.943 12.94L138.513 21H134.067L137.291 2.748H141.737L140.333 10.756L147.847 2.748H153.047L144.389 11.692ZM157.786 4.984C157.093 4.984 156.538 4.802 156.122 4.438C155.723 4.05667 155.524 3.58 155.524 3.008C155.524 2.228 155.827 1.56067 156.434 1.006C157.041 0.451332 157.777 0.173998 158.644 0.173998C159.337 0.173998 159.883 0.364665 160.282 0.745999C160.681 1.11 160.88 1.58667 160.88 2.176C160.88 2.93867 160.577 3.59733 159.97 4.152C159.363 4.70667 158.635 4.984 157.786 4.984ZM159.71 6.492L157.162 21H152.716L155.264 6.492H159.71ZM166.936 16.008C166.919 16.0947 166.91 16.2073 166.91 16.346C166.91 16.658 166.997 16.8833 167.17 17.022C167.361 17.1607 167.664 17.23 168.08 17.23H169.666L168.99 21H166.728C163.816 21 162.36 19.778 162.36 17.334C162.36 16.97 162.403 16.5107 162.49 15.956L163.53 10.184H161.762L162.412 6.492H164.18L164.804 2.956H169.25L168.626 6.492H171.538L170.888 10.184H167.976L166.936 16.008Z" fill="#FF0000"/>
</svg>
